<svg viewBox="0 0 720 1000" xmlns="http://www.w3.org/2000/svg" aria-hidden="true">
  <defs>
    <linearGradient id="metalA" x1="0" x2="1" y1="0" y2="0">
      <stop offset="0%" stop-color="#c8d4e8"></stop>
      <stop offset="40%" stop-color="#6a82a8"></stop>
      <stop offset="60%" stop-color="#3e5578"></stop>
      <stop offset="100%" stop-color="#1a2a44"></stop>
    </linearGradient>
    <linearGradient id="metalB" x1="0" x2="1" y1="0" y2="0">
      <stop offset="0%" stop-color="#2a3d5f"></stop>
      <stop offset="50%" stop-color="#7891b8"></stop>
      <stop offset="100%" stop-color="#dbe4f3"></stop>
    </linearGradient>
    <linearGradient id="tankGrad" x1="0" x2="0" y1="0" y2="1">
      <stop offset="0%" stop-color="#e4ebf6"></stop>
      <stop offset="30%" stop-color="#94a8c8"></stop>
      <stop offset="70%" stop-color="#3e5378"></stop>
      <stop offset="100%" stop-color="#18243c"></stop>
    </linearGradient>
    <linearGradient id="bushingGrad" x1="0" x2="0" y1="0" y2="1">
      <stop offset="0%" stop-color="#f5e8c0"></stop>
      <stop offset="50%" stop-color="#c89a50"></stop>
      <stop offset="100%" stop-color="#6b4e1e"></stop>
    </linearGradient>
    <linearGradient id="insulGrad" x1="0" x2="0" y1="0" y2="1">
      <stop offset="0%" stop-color="#e0e8f5"></stop>
      <stop offset="50%" stop-color="#8ea3c5"></stop>
      <stop offset="100%" stop-color="#3e5378"></stop>
    </linearGradient>
    <radialGradient id="spark" cx=".5" cy=".5" r=".5">
      <stop offset="0%" stop-color="#ffffff" stop-opacity=".95"></stop>
      <stop offset="30%" stop-color="#00d8ff" stop-opacity=".8"></stop>
      <stop offset="70%" stop-color="#0066ff" stop-opacity=".3"></stop>
      <stop offset="100%" stop-color="#0066ff" stop-opacity="0"></stop>
    </radialGradient>
    <filter id="glow" x="-50%" y="-50%" width="200%" height="200%">
      <feGaussianBlur stdDeviation="4"></feGaussianBlur>
    </filter>
    <filter id="softGlow" x="-50%" y="-50%" width="200%" height="200%">
      <feGaussianBlur stdDeviation="2"></feGaussianBlur>
    </filter>
  </defs>

  
  <g>
    
    <path d="M140 980 L240 60" stroke="url(#metalA)" stroke-width="4" fill="none" stroke-linecap="round"></path>
    <path d="M580 980 L480 60" stroke="url(#metalB)" stroke-width="4" fill="none" stroke-linecap="round"></path>
    
    <path d="M220 980 L280 60" stroke="url(#metalA)" stroke-width="2" fill="none" opacity=".7"></path>
    <path d="M500 980 L440 60" stroke="url(#metalB)" stroke-width="2" fill="none" opacity=".7"></path>

    
    <g stroke="url(#metalA)" stroke-width="1.8" fill="none" stroke-linecap="round">
      <path d="M150 940 L570 940"></path>
      <path d="M160 870 L560 870"></path>
      <path d="M175 790 L545 790"></path>
      <path d="M190 700 L530 700"></path>
      <path d="M205 610 L515 610"></path>
      <path d="M218 520 L502 520"></path>
      <path d="M228 440 L492 440"></path>
      <path d="M238 370 L482 370"></path>
      <path d="M246 300 L474 300"></path>
      <path d="M253 240 L467 240"></path>
      <path d="M258 190 L462 190"></path>
      <path d="M263 145 L457 145"></path>
      <path d="M266 110 L454 110"></path>
      <path d="M270 80 L450 80"></path>
    </g>

    
    <g stroke="url(#metalA)" stroke-width="1.2" fill="none" opacity=".9">
      <path d="M140 980 L560 940 M580 980 L160 940"></path>
      <path d="M150 940 L550 870 M570 940 L170 870"></path>
      <path d="M160 870 L535 790 M560 870 L185 790"></path>
      <path d="M175 790 L520 700 M545 790 L200 700"></path>
      <path d="M190 700 L505 610 M530 700 L215 610"></path>
      <path d="M205 610 L492 520 M515 610 L228 520"></path>
      <path d="M218 520 L482 440 M502 520 L238 440"></path>
      <path d="M228 440 L474 370 M492 440 L246 370"></path>
      <path d="M238 370 L467 300 M482 370 L253 300"></path>
      <path d="M246 300 L462 240 M474 300 L258 240"></path>
      <path d="M253 240 L457 190 M467 240 L263 190"></path>
      <path d="M258 190 L454 145 M462 190 L266 145"></path>
      <path d="M263 145 L450 110 M457 145 L270 110"></path>
    </g>

    
    <g stroke="url(#metalB)" stroke-width=".8" fill="none" opacity=".55">
      <path d="M220 980 L500 940 L220 900 L500 860 L220 820 L500 780 L220 740 L500 700 L220 660 L500 620 L220 580 L500 540 L228 500"></path>
    </g>
  </g>

  
  <g>
    
    <rect x="60" y="346" width="600" height="8" rx="2" fill="url(#metalB)"></rect>
    <rect x="60" y="354" width="600" height="3" fill="#1a2740" opacity=".4"></rect>
    
    <rect x="90" y="266" width="540" height="7" rx="2" fill="url(#metalB)"></rect>
    <rect x="90" y="273" width="540" height="3" fill="#1a2740" opacity=".4"></rect>
    
    <rect x="120" y="176" width="480" height="6" rx="2" fill="url(#metalB)"></rect>
    <rect x="120" y="182" width="480" height="2" fill="#1a2740" opacity=".4"></rect>

    
    <g stroke="url(#metalA)" stroke-width="1.3" fill="none" opacity=".75">
      <path d="M60 350 L250 300 M660 350 L470 300"></path>
      <path d="M90 270 L260 215 M630 270 L460 215"></path>
      <path d="M120 180 L270 135 M600 180 L450 135"></path>
    </g>
  </g>

  
  <g>
    
    <g transform="translate(80 354)">
      <g fill="url(#insulGrad)" stroke="#2a3d5f" stroke-width=".5">
        <ellipse cx="0" cy="10" rx="7" ry="4"></ellipse><ellipse cx="0" cy="22" rx="7" ry="4"></ellipse>
        <ellipse cx="0" cy="34" rx="7" ry="4"></ellipse><ellipse cx="0" cy="46" rx="7" ry="4"></ellipse>
        <ellipse cx="0" cy="58" rx="7" ry="4"></ellipse><ellipse cx="0" cy="70" rx="7" ry="4"></ellipse>
      </g>
    </g>
    <g transform="translate(360 354)">
      <g fill="url(#insulGrad)" stroke="#2a3d5f" stroke-width=".5">
        <ellipse cx="0" cy="10" rx="7" ry="4"></ellipse><ellipse cx="0" cy="22" rx="7" ry="4"></ellipse>
        <ellipse cx="0" cy="34" rx="7" ry="4"></ellipse><ellipse cx="0" cy="46" rx="7" ry="4"></ellipse>
        <ellipse cx="0" cy="58" rx="7" ry="4"></ellipse><ellipse cx="0" cy="70" rx="7" ry="4"></ellipse>
      </g>
    </g>
    <g transform="translate(640 354)">
      <g fill="url(#insulGrad)" stroke="#2a3d5f" stroke-width=".5">
        <ellipse cx="0" cy="10" rx="7" ry="4"></ellipse><ellipse cx="0" cy="22" rx="7" ry="4"></ellipse>
        <ellipse cx="0" cy="34" rx="7" ry="4"></ellipse><ellipse cx="0" cy="46" rx="7" ry="4"></ellipse>
        <ellipse cx="0" cy="58" rx="7" ry="4"></ellipse><ellipse cx="0" cy="70" rx="7" ry="4"></ellipse>
      </g>
    </g>
    
    <g transform="translate(105 273)">
      <g fill="url(#insulGrad)" stroke="#2a3d5f" stroke-width=".5">
        <ellipse cx="0" cy="8" rx="6" ry="3.5"></ellipse><ellipse cx="0" cy="18" rx="6" ry="3.5"></ellipse>
        <ellipse cx="0" cy="28" rx="6" ry="3.5"></ellipse><ellipse cx="0" cy="38" rx="6" ry="3.5"></ellipse>
        <ellipse cx="0" cy="48" rx="6" ry="3.5"></ellipse>
      </g>
    </g>
    <g transform="translate(615 273)">
      <g fill="url(#insulGrad)" stroke="#2a3d5f" stroke-width=".5">
        <ellipse cx="0" cy="8" rx="6" ry="3.5"></ellipse><ellipse cx="0" cy="18" rx="6" ry="3.5"></ellipse>
        <ellipse cx="0" cy="28" rx="6" ry="3.5"></ellipse><ellipse cx="0" cy="38" rx="6" ry="3.5"></ellipse>
        <ellipse cx="0" cy="48" rx="6" ry="3.5"></ellipse>
      </g>
    </g>
    
    <g transform="translate(135 183)">
      <g fill="url(#insulGrad)" stroke="#2a3d5f" stroke-width=".5">
        <ellipse cx="0" cy="8" rx="5.5" ry="3"></ellipse><ellipse cx="0" cy="17" rx="5.5" ry="3"></ellipse>
        <ellipse cx="0" cy="26" rx="5.5" ry="3"></ellipse><ellipse cx="0" cy="35" rx="5.5" ry="3"></ellipse>
      </g>
    </g>
    <g transform="translate(585 183)">
      <g fill="url(#insulGrad)" stroke="#2a3d5f" stroke-width=".5">
        <ellipse cx="0" cy="8" rx="5.5" ry="3"></ellipse><ellipse cx="0" cy="17" rx="5.5" ry="3"></ellipse>
        <ellipse cx="0" cy="26" rx="5.5" ry="3"></ellipse><ellipse cx="0" cy="35" rx="5.5" ry="3"></ellipse>
      </g>
    </g>
  </g>

  
  <g fill="none" opacity=".85">
    <path d="M-60 450 Q 100 490 360 470 T 780 460" stroke="#0a1628" stroke-width="2"></path>
    <path d="M-60 380 Q 120 420 360 400 T 780 390" stroke="#0a1628" stroke-width="2"></path>
    <path d="M-60 310 Q 140 350 360 330 T 780 320" stroke="#0a1628" stroke-width="2"></path>
    <path d="M-60 230 Q 160 270 360 250 T 780 240" stroke="#0a1628" stroke-width="1.8"></path>
  </g>

  
  <g filter="url(#glow)">
    <circle cx="80" cy="428" r="11" fill="url(#spark)"></circle>
    <circle cx="360" cy="428" r="14" fill="url(#spark)"></circle>
    <circle cx="640" cy="428" r="11" fill="url(#spark)"></circle>
    <circle cx="110" cy="326" r="8" fill="url(#spark)" opacity=".7"></circle>
    <circle cx="610" cy="326" r="8" fill="url(#spark)" opacity=".7"></circle>
  </g>

  
  <g transform="translate(360 900)">
    
    <ellipse cx="0" cy="60" rx="160" ry="12" fill="#0a1628" opacity=".35" filter="url(#softGlow)"></ellipse>
    
    <rect x="-130" y="-20" width="260" height="70" rx="10" fill="url(#tankGrad)"></rect>
    
    <rect x="-130" y="-20" width="260" height="8" rx="10" fill="rgba(255,255,255,.35)"></rect>
    
    <g fill="#3e5378" opacity=".8">
      <rect x="-158" y="-8" width="24" height="46" rx="2"></rect>
      <rect x="134" y="-8" width="24" height="46" rx="2"></rect>
    </g>
    <g stroke="#1a2740" stroke-width=".6" opacity=".7">
      <path d="M-154 -6 L-154 36 M-150 -6 L-150 36 M-146 -6 L-146 36 M-142 -6 L-142 36 M-138 -6 L-138 36"></path>
      <path d="M138 -6 L138 36 M142 -6 L142 36 M146 -6 L146 36 M150 -6 L150 36 M154 -6 L154 36"></path>
    </g>
    
    <g>
      <rect x="-76" y="-54" width="14" height="36" rx="2" fill="url(#bushingGrad)"></rect>
      <rect x="-7" y="-60" width="14" height="42" rx="2" fill="url(#bushingGrad)"></rect>
      <rect x="62" y="-54" width="14" height="36" rx="2" fill="url(#bushingGrad)"></rect>
      
      <rect x="-82" y="-22" width="26" height="6" rx="1" fill="#2a3d5f"></rect>
      <rect x="-13" y="-22" width="26" height="6" rx="1" fill="#2a3d5f"></rect>
      <rect x="56" y="-22" width="26" height="6" rx="1" fill="#2a3d5f"></rect>
    </g>
    
    <rect x="-30" y="10" width="60" height="20" rx="2" fill="#0a1628" opacity=".5"></rect>
    <text x="0" y="23" fill="#7fd4ff" font-family="monospace" font-size="7" text-anchor="middle" opacity=".85">TX · 30 MVA</text>
  </g>
</svg>